<svg height="509pt" viewBox="0 -3 509.90003 509" width="509pt" xmlns="http://www.w3.org/2000/svg"><path d="m355.796875 213.058594v-128.71875l-72.808594-45.011719c-30.898437-25.195313-69.558593-38.933594-109.429687-38.878906h-138.847656c-19.167969 0-34.710938 15.542969-34.710938 34.710937v433.898438c0 19.171875 15.542969 34.714844 34.710938 34.714844 19.171874 0 34.710937-15.542969 34.710937-34.714844v-121.488282h105.613281l84.347656 139.453126c6.320313 10.398437 17.601563 16.746093 29.765626 16.75 5.566406.046874 11.054687-1.296876 15.96875-3.90625l16.226562-43.738282c-.679688-1.75-1.523438-3.4375-2.515625-5.03125l-57.273437-94.765625-15.011719-24.816406c16.808593-7.765625 32.25-18.199219 45.730469-30.894531zm-116.632813 41.917968c-5.277343 4.292969-10.976562 8.042969-17.007812 11.191407h-.085938c-14.953124 7.886719-31.605468 12-48.511718 11.976562h-104.136719v-208.269531h104.136719c55.519531-.097656 101.304687 43.472656 103.960937 98.925781zm0 0" fill="#f29c1f"/><path d="m329.796875 356.246094h52.066406v93.808594h-52.066406zm0 0" fill="#285680"/><path d="m355.796875 443.027344c28.757813 0 52.066406 23.3125 52.066406 52.066406 0 4.792969-3.882812 8.679688-8.675781 8.679688h-86.78125c-4.792969 0-8.675781-3.886719-8.675781-8.679688 0-28.753906 23.308593-52.066406 52.066406-52.066406zm0 0" fill="#4482c3"/><path d="m374.886719 356.246094h-38.179688c-14.597656 0-27.632812-9.132813-32.621093-22.847656l-44.179688-121.492188c-3.875-10.648438-2.304688-22.519531 4.203125-31.796875s17.136719-14.792969 28.46875-14.777344h126.507813c11.324218 0 21.933593 5.523438 28.429687 14.796875 6.496094 9.277344 8.058594 21.136719 4.191406 31.777344l-44.179687 121.492188c-4.992188 13.722656-18.035156 22.855468-32.640625 22.847656zm0 0" fill="#4482c3"/><path d="m321.121094 123.765625h69.421875v41.566406h-69.421875zm0 0" fill="#285680"/><path d="m433.933594 65.535156c0-35.945312-34.96875-65.085937-78.101563-65.085937-43.136719 0-78.101562 29.140625-78.101562 65.085937 0 35.945313 34.964843 65.085938 78.101562 65.085938 43.132813 0 78.101563-29.140625 78.101563-65.085938zm0 0" fill="#4482c3"/><path d="m338.476562 61.195312c0 4.792969-3.886718 8.679688-8.679687 8.679688s-8.675781-3.886719-8.675781-8.679688c0-4.792968 3.882812-8.675781 8.675781-8.675781s8.679687 3.882813 8.679687 8.675781zm0 0" fill="#2c3e50"/><path d="m390.542969 61.195312c0 4.792969-3.886719 8.679688-8.679688 8.679688-4.789062 0-8.675781-3.886719-8.675781-8.679688 0-4.792968 3.886719-8.675781 8.675781-8.675781 4.792969 0 8.679688 3.882813 8.679688 8.675781zm0 0" fill="#2c3e50"/><path d="m249.363281 416.992188c-3.078125 0-5.925781-1.632813-7.480469-4.285157l-15.152343-25.828125c-1.570313-2.671875-1.59375-5.980468-.0625-8.675781l14.796875-26.035156c1.53125-2.695313 4.382812-4.367188 7.480468-4.390625l29.945313-.207032h.0625c3.078125 0 5.921875 1.632813 7.480469 4.285157l6.5 11.082031c1.597656 2.675781 1.636718 6.003906.105468 8.714844-1.53125 2.714844-4.402343 4.398437-7.519531 4.410156-3.113281.015625-6-1.644531-7.554687-4.34375l-3.964844-6.792969-19.960938.136719-9.851562 17.355469 10.128906 17.21875 21.261719-.171875h.070313c4.792968-.019532 8.691406 3.847656 8.710937 8.640625s-3.851563 8.695312-8.644531 8.714843l-26.285156.171876zm0 0" fill="#4482c3"/><path d="m257.734375 200.128906c-.28125-.070312-.574219-.101562-.867187-.085937-13.277344-.035157-25.039063 8.558593-29.042969 21.21875-4 12.660156.683593 26.453125 11.570312 34.054687 10.886719 7.601563 25.449219 7.253906 35.957031-.863281zm0 0" fill="#285680"/><path d="m240.726562 379.589844c-2.671874.003906-5.199218-1.226563-6.847656-3.332032l-.78125-.996093c-51.511718-65.570313-30.371094-106.742188-3.582031-129.726563 2.332031-2.160156 5.660156-2.867187 8.671875-1.847656 3.007812 1.019531 5.222656 3.601562 5.765625 6.734375s-.667969 6.308594-3.15625 8.285156c-30.609375 26.257813-28.636719 61.863281 5.925781 105.871094l.816406 1.03125c2.042969 2.613281 2.417969 6.164063.964844 9.144531-1.453125 2.984375-4.476562 4.878906-7.792968 4.878906zm0 0" fill="#4482c3"/><path d="m462.039062 416.992188h-.066406l-26.277344-.207032c-4.792968-.019531-8.664062-3.921875-8.644531-8.714844.019531-4.792968 3.921875-8.660156 8.714844-8.640624h.066406l21.261719.171874 10.085938-17.183593-9.84375-17.355469-19.964844-.136719-3.96875 6.757813c-1.554688 2.699218-4.4375 4.359375-7.554688 4.34375-3.117187-.011719-5.984375-1.695313-7.519531-4.410156-1.53125-2.710938-1.492187-6.039063.105469-8.714844l6.5-11.082032c1.574218-2.652343 4.4375-4.273437 7.523437-4.25h.0625l29.945313.207032c3.101562.023437 5.949218 1.695312 7.480468 4.390625l14.753907 26.035156c1.53125 2.695313 1.507812 6.003906-.0625 8.675781l-15.148438 25.828125c-1.550781 2.640625-4.382812 4.273438-7.449219 4.285157zm0 0" fill="#4482c3"/><path d="m453.859375 200.128906c.28125-.070312.574219-.101562.867187-.085937 13.277344-.035157 25.039063 8.558593 29.039063 21.21875 4.003906 12.660156-.683594 26.453125-11.566406 34.054687-10.886719 7.601563-25.449219 7.253906-35.957031-.863281zm0 0" fill="#285680"/><path d="m470.675781 379.589844c-3.316406 0-6.34375-1.894532-7.796875-4.878906-1.453125-2.980469-1.078125-6.53125.96875-9.144532l.867188-1.136718c34.570312-43.972657 36.628906-79.550782 6.074218-105.742188-2.492187-1.972656-3.703124-5.152344-3.160156-8.28125.546875-3.132812 2.757813-5.71875 5.769532-6.734375 3.011718-1.019531 6.335937-.3125 8.671874 1.84375 26.746094 22.945313 47.796876 64.0625-3.765624 129.632813l-.867188 1.09375c-1.625 2.085937-4.117188 3.320312-6.761719 3.347656zm0 0" fill="#4482c3"/><path d="m334.136719 208.722656h43.390625c11.980468 0 21.695312 9.710938 21.695312 21.695313 0 11.980469-9.714844 21.691406-21.695312 21.691406h-43.390625c-11.980469 0-21.695313-9.710937-21.695313-21.691406 0-11.984375 9.714844-21.695313 21.695313-21.695313zm0 0" fill="#b0d3f0"/><g fill="#90bae1"><path d="m373.152344 295.5h-34.710938c-4.792968 0-8.679687-3.882812-8.679687-8.675781s3.886719-8.679688 8.679687-8.679688h34.710938c4.792968 0 8.679687 3.886719 8.679687 8.679688s-3.886719 8.675781-8.679687 8.675781zm0 0"/><path d="m373.152344 330.210938h-34.710938c-4.792968 0-8.679687-3.882813-8.679687-8.675782 0-4.792968 3.886719-8.679687 8.679687-8.679687h34.710938c4.792968 0 8.679687 3.886719 8.679687 8.679687 0 4.792969-3.886719 8.675782-8.679687 8.675782zm0 0"/></g></svg>